<?xml version="1.0" encoding="UTF-8"?>
<svg id="Vrstva_2" data-name="Vrstva 2" xmlns="http://www.w3.org/2000/svg" viewBox="0 0 1285.16 453.85">
  <defs>
    <style>
      .cls-1 {
        fill: #e6e998;
      }

      .cls-2 {
        fill: #1d1d1b;
      }

      .cls-3 {
        fill: #9ed0b2;
      }

      .cls-4 {
        fill: #fff;
      }

      .cls-5 {
        fill: #f2ba94;
      }
    </style>
  </defs>
  <g id="Vrstva_1-2" data-name="Vrstva 1">
    <g>
      <path class="cls-1" d="M399.44,153.83c9.82,9.07,12.79,19.85,5.95,31.88-34.85,32.69-70.55,64.51-106.39,96.17-7.04-14.44-21.45-20.87-37.71-27.11-3.9-1.5-10.63-2.84-13.89-4.63-.67-.37-1.13-.44-1.26-1.37-.41-2.6,3.7-10.54,2.68-13.95,6.34.17,12.91-.69,18.64-3.61,2.41-1.22,5.46-4.41,7.69-5.21,13.17-4.65,27.88-8.29,35-22.27,3.06-6-.37-5.18-3.63-8.86-7.26-8.15-12.08-23.91-8.49-34.49.86-2.54,3.87-4.93,4.97-8.42,1.5-4.71.17-7.68.68-11.55.17-1.3,4.73-1.99,3.8-5.88-1.17-4.93-5.01-1.27-6.19-1.8-.44-2.01-5.83-5.85-6.07-6.55-.21-.61,1.38-10.37,1.32-12.73-.43-16.78-10.43-36.51-26.47-43.08-3.17-1.3-6.79-1.58-9.52-2.75-8.82-3.77-10.61-6.45-21.57-7.52-39.58-3.87-72.47,18.31-84.67,55.54-4.44,13.53-5.09,27.83-10.11,41.08-6.17,16.29-21.51,34.82-17.13,53.14,4.58,19.2,35.32,25.84,52.05,27.44-1.73,5.68-3.98,7.96-8.85,10.98-9.93,6.15-22.2,10.96-32.91,17.38l-74.63-66.48h0c-.09-.06-.17-.15-.25-.23l-3.86-3.44-.13-.11c-9.22-7.7-21.32-15.53-20.54-28.08.49-7.95,3.1-10.92,8.77-16.09,13.66-12.47,30.28-24.3,44.71-36.22,36.87-30.45,74.37-64.31,112.27-92.99,13.42-10.15,24.48-12.36,38.79-1.76,20.29,15.05,40.87,35.57,60.45,52.19,31.57,26.83,66.26,53.45,96.51,81.38Z"/>
      <path class="cls-5" d="M403.58,283.65l-166.6,151.12h0v-.04s0-.03,0-.03l-2.95-83.79,19.04-10.6c1.18-.66,2.3-1.43,3.33-2.29.15-.13.3-.26.44-.38l151.14-134.08-.23,66.55c-.08,5.04-1.78,9.17-4.17,13.54Z"/>
      <path class="cls-3" d="M221.4,351.59l.74,86.38c-1.37,2.52-13.5-2.72-15.36-4.53-58.42-54.2-119.51-105.6-178.13-159.57-9.4-8.66-15.85-14.15-13.4-28.01l15-57.44c16.66,16.76,35.17,31.63,52.85,47.32,14.29,12.68,28.49,25.49,42.72,38.28,8.18,7.36,16.37,14.72,24.59,22.04,19.12,17.05,38.37,33.91,57.99,50.25,6.44,3.54,6.02,4.12,13,5.28ZM112.94,296.12s0-.01.01-.01h-.26c.08.01.17.01.25.01Z"/>
      <path d="M269.26,194.3c4.04,5.85-11.39,9.15-15.14,9.31-3.22.13-14.75-1.76-15.42-5.35-.16-.85.18-2.6,1.04-3.05,2.56-1.32,11.66,1.7,16.18,1.22,3.3-.35,11.62-4.61,13.34-2.13Z"/>
      <path d="M261.29,254.77c16.26,6.24,30.67,12.67,37.71,27.11-5.29,4.69-10.59,9.36-15.88,14.03-13.33,11.76-26.67,23.52-39.97,35.3-12.76,8.92-28.68,6.56-38.49-5.61l-33.19-29.56-34.11-30.38c10.71-6.42,22.98-11.23,32.91-17.38,4.87-3.02,7.12-5.3,8.85-10.98-16.73-1.6-47.47-8.24-52.05-27.44-4.38-18.32,10.96-36.85,17.13-53.14,5.02-13.25,5.67-27.55,10.11-41.08,12.2-37.23,45.09-59.41,84.67-55.54,10.96,1.07,12.75,3.75,21.57,7.52,2.73,1.17,6.35,1.45,9.52,2.75,16.04,6.57,26.04,26.3,26.47,43.08.06,2.36-1.53,12.12-1.32,12.73.24.7,5.63,4.54,6.07,6.55,1.18.53,5.02-3.13,6.19,1.8.93,3.89-3.63,4.58-3.8,5.88-.51,3.87.82,6.84-.68,11.55-1.1,3.49-4.11,5.88-4.97,8.42-3.59,10.58,1.23,26.34,8.49,34.49,3.26,3.68,6.69,2.86,3.63,8.86-7.12,13.98-21.83,17.62-35,22.27-2.23.8-5.28,3.99-7.69,5.21-5.73,2.92-12.3,3.78-18.64,3.61,1.02,3.41-3.09,11.35-2.68,13.95.13.93.59,1,1.26,1.37,3.26,1.79,9.99,3.13,13.89,4.63ZM283.37,192.78c1.99-6.7,5.41-19.15,4.86-25.9-.12-1.42-.15-.8-1.11-.82-3.53-.08-6.96.46-10.41-1.21.3,4.58,2.83,7.37.91,12-2.66,6.49-12.23,8.62-18.46,7.02-3.16-.81-3.6-4.55-1.57-6.47,3.34-3.17,14.69,3.25,12.39-8.62-1.64-8.45-6.64-16.44-6.81-25.16-10.25,3.15-5.7,6.14-6.87,13.66-1.15,7.46-7.56,14.77-14.99,16.51-16.09,3.78-27.05-6.73-26.72-22.64-2.64-.04-18.36-1.1-19.11.33.26,20.02,9.19,39.8,5.82,59.94-.88,5.26-4.64,19.28-8.53,22.55-1.26,1.06-3.11,1.23-4.12,2.68-1.21,1.71-2.02,6.4-3.46,8.98-2.52,4.53-6.22,8.44-11.49,9.6,12.29,12.79,31.21,19.24,48.81,19.42,9.61.11,23.91-1.62,25.35-13.2-2.55-.84-10.42-2.24-11.21-4.8-1.05-3.46,5.06-21.9,4.12-22.67-7.84-.82-16.57-3.82-23.24-8.02-3.17-2-9.2-5.43-7.25-9.51,3.16-6.6,10.16,1.84,13.74,3.98,9.87,5.88,28.72,8.81,39.37,4.24,10.78-4.64,16.83-21.36,19.98-31.89ZM285.45,159.03c16.81-2.75,12.92-32.86-4.49-28.98-16.27,3.61-12.23,31.72,4.49,28.98ZM285.35,122.69c.91-10.64-5.26-22.18-13.26-28.89-1.27-1.06-8.9-6.09-9.94-4.88-1.68,12.29-15.1,22.69-25.07,28.92-10.66,6.67-23.1,10.8-33.42,17.68-2.95,1.95-7.26,4.08-7.21,8.16l19.34-.14c1.95-2.39,3.2-5.34,5.34-7.6,9.49-10.09,26.17-7.73,32.69,4.39,2.55-2.73,8.57-2.93,10.9-4.52.56-.38,3.29-5.46,4.66-6.91,4.12-4.32,10.04-6.79,15.97-6.21ZM232.79,167.35c22.43,4.04,21.19-36.94-1.68-29.67-12.5,3.98-12.16,27.17,1.68,29.67Z"/>
      <path d="M204.66,325.6c9.81,12.17,25.73,14.53,38.49,5.61,13.3-11.78,26.64-23.54,39.97-35.3,5.29-4.67,10.59-9.34,15.88-14.03,35.84-31.66,71.54-63.48,106.39-96.17,6.84-12.03,3.87-22.81-5.95-31.88-30.25-27.93-64.94-54.55-96.51-81.38-19.58-16.62-40.16-37.14-60.45-52.19-14.31-10.6-25.37-8.39-38.79,1.76-37.9,28.68-75.4,62.54-112.27,92.99-14.43,11.92-31.05,23.75-44.71,36.22-5.67,5.17-8.28,8.14-8.77,16.09-.78,12.55,11.32,20.38,20.54,28.08l.13.11,3.86,3.44c.08.08.16.17.25.24h0s74.63,66.47,74.63,66.47l34.11,30.38,33.19,29.56ZM423.77,172.13c-3.13,32.1,2.16,68.12-1.17,99.75-.9,8.53-3.15,15.15-8.55,22.01-20.04,18.97-40.63,37.36-61.11,55.84-33.88,30.57-69.16,64.88-104.13,93.58-17.02,13.98-36.79,13.44-54.22.08L13.14,280.71C.23,267.89-1.87,254.79,1.99,237.63c5.02-22.23,11.97-50.67,18.98-72.14,2.05-6.24,4.06-11.48,8.27-16.72C87.61,100.66,145.29,51.21,205.01,4.87c3.19-1.43,6.52-2.75,9.92-3.55,10.51-2.47,21.57-.49,31.24,4.18,56.55,46.02,111.61,94.25,166.94,141.85,6.86,7.11,10.19,15,10.66,24.78ZM407.75,270.11l.23-66.55-151.14,134.08c-.14.12-.29.25-.44.38-1.03.86-2.15,1.63-3.33,2.29l-19.04,10.6,2.95,83.79v.07s0,0,0,0l166.6-151.12c2.39-4.37,4.09-8.5,4.17-13.54ZM222.14,437.97l-.74-86.38c-6.98-1.16-6.56-1.74-13-5.28-19.62-16.34-38.87-33.2-57.99-50.25-8.22-7.32-16.41-14.68-24.59-22.04-14.23-12.79-28.43-25.6-42.72-38.28-17.68-15.69-36.19-30.56-52.85-47.32l-15,57.44c-2.45,13.86,4,19.35,13.4,28.01,58.62,53.97,119.71,105.37,178.13,159.57,1.86,1.81,13.99,7.05,15.36,4.53Z"/>
      <path class="cls-4" d="M112.95,296.11s-.01.01-.01.01c-.08,0-.17,0-.25-.01h.26Z"/>
    </g>
    <g>
      <path class="cls-2" d="M485.7,351.74v-206.11h124.39v22.14h-99.43v69.64h92.99v22.14h-92.99v70.04h101.04v22.14h-126Z"/>
      <path class="cls-2" d="M710.32,354.97c-12.88,0-24.25-3.27-34.12-9.81-9.86-6.54-17.58-15.8-23.15-27.78-5.57-11.98-8.35-26.15-8.35-42.52s2.78-30.33,8.35-42.27c5.57-11.94,13.32-21.17,23.25-27.68,9.93-6.51,21.4-9.76,34.42-9.76,10.06,0,18.03,1.66,23.9,4.98,5.87,3.32,10.37,7.08,13.49,11.27,3.12,4.19,5.55,7.63,7.3,10.32h2.01v-76.08h23.75v206.11h-22.95v-23.75h-2.82c-1.75,2.82-4.23,6.36-7.45,10.62-3.22,4.26-7.82,8.05-13.79,11.37-5.97,3.32-13.92,4.98-23.85,4.98ZM713.54,333.63c9.53,0,17.58-2.5,24.15-7.5,6.57-5,11.57-11.94,15-20.83,3.42-8.89,5.13-19.17,5.13-30.85s-1.68-21.65-5.03-30.34c-3.36-8.69-8.32-15.46-14.89-20.33-6.58-4.86-14.69-7.3-24.35-7.3s-18.44,2.57-25.11,7.7c-6.68,5.13-11.67,12.08-15,20.83s-4.98,18.57-4.98,29.44,1.69,20.98,5.08,29.94c3.39,8.96,8.42,16.07,15.1,21.34,6.67,5.27,14.98,7.9,24.91,7.9Z"/>
      <path class="cls-2" d="M839.94,171.4c-4.63,0-8.6-1.58-11.93-4.73-3.32-3.15-4.98-6.94-4.98-11.37s1.66-8.22,4.98-11.37c3.32-3.15,7.3-4.73,11.93-4.73s8.6,1.58,11.93,4.73c3.32,3.15,4.98,6.94,4.98,11.37s-1.66,8.22-4.98,11.37c-3.32,3.15-7.3,4.73-11.93,4.73ZM827.87,351.74v-154.58h23.75v154.58h-23.75Z"/>
      <path class="cls-2" d="M962.32,197.16v20.13h-80.11v-20.13h80.11ZM905.56,160.13h23.75v147.33c0,6.71.99,11.72,2.97,15.05,1.98,3.32,4.53,5.53,7.65,6.64,3.12,1.11,6.42,1.66,9.91,1.66,2.62,0,4.76-.15,6.44-.45,1.68-.3,3.02-.55,4.03-.75l4.83,21.34c-1.61.6-3.86,1.22-6.74,1.86-2.89.64-6.54.96-10.97.96-6.71,0-13.27-1.44-19.67-4.33-6.41-2.88-11.71-7.28-15.9-13.18-4.19-5.9-6.29-13.35-6.29-22.34v-153.78Z"/>
      <path class="cls-2" d="M1025.11,258.75v92.99h-23.75v-206.11h23.75v75.68h2.01c3.62-7.98,9.07-14.34,16.35-19.07,7.28-4.73,16.99-7.1,29.13-7.1,10.53,0,19.76,2.1,27.68,6.29,7.92,4.19,14.07,10.6,18.47,19.22,4.39,8.62,6.59,19.57,6.59,32.86v98.22h-23.75v-96.61c0-12.28-3.17-21.79-9.51-28.53s-15.11-10.11-26.32-10.11c-7.78,0-14.74,1.65-20.88,4.93-6.14,3.29-10.97,8.09-14.49,14.39-3.52,6.31-5.28,13.96-5.28,22.95Z"/>
      <path class="cls-2" d="M1214.31,355.37c-9.8,0-18.69-1.86-26.67-5.59-7.99-3.72-14.33-9.12-19.02-16.2-4.7-7.08-7.04-15.65-7.04-25.71,0-8.86,1.74-16.05,5.23-21.59,3.49-5.53,8.15-9.88,13.99-13.03,5.84-3.15,12.29-5.52,19.37-7.09,7.08-1.58,14.21-2.83,21.39-3.77,9.39-1.21,17.02-2.13,22.9-2.77,5.87-.64,10.16-1.73,12.88-3.27,2.72-1.54,4.08-4.23,4.08-8.05v-.81c0-9.93-2.7-17.65-8.1-23.15-5.4-5.5-13.57-8.25-24.51-8.25s-20.23,2.48-26.67,7.45c-6.44,4.97-10.97,10.27-13.59,15.9l-22.54-8.05c4.03-9.39,9.41-16.72,16.15-21.99,6.74-5.27,14.12-8.96,22.14-11.07,8.02-2.11,15.92-3.17,23.7-3.17,4.96,0,10.68.59,17.16,1.76,6.47,1.17,12.75,3.57,18.82,7.2s11.12,9.09,15.15,16.4c4.03,7.31,6.04,17.11,6.04,29.39v101.85h-23.75v-20.93h-1.21c-1.61,3.36-4.29,6.94-8.05,10.77-3.76,3.82-8.76,7.08-15,9.76-6.24,2.68-13.86,4.03-22.85,4.03ZM1217.93,334.03c9.39,0,17.33-1.84,23.8-5.54,6.47-3.69,11.37-8.45,14.69-14.29,3.32-5.84,4.98-11.98,4.98-18.42v-21.74c-1.01,1.21-3.21,2.3-6.59,3.27-3.39.97-7.28,1.81-11.67,2.52-4.39.7-8.65,1.31-12.78,1.81-4.13.5-7.46.92-10.01,1.26-6.17.81-11.92,2.1-17.26,3.87-5.33,1.78-9.63,4.43-12.88,7.95-3.25,3.52-4.88,8.3-4.88,14.34,0,8.25,3.07,14.48,9.21,18.67,6.14,4.19,13.94,6.29,23.4,6.29Z"/>
    </g>
  </g>
</svg>